<mxfile host="app.diagrams.net" modified="2023-05-30T02:18:37.478Z" agent="Mozilla/5.0 (Windows NT 10.0; Win64; x64) AppleWebKit/537.36 (KHTML, like Gecko) Chrome/113.0.0.0 Safari/537.36" etag="xpH8FHP8cK553zkX6ex9" version="21.3.5" type="github">
  <diagram name="P치gina-1" id="bmNziV8O4JnkdKXzY7VO">
    <mxGraphModel dx="989" dy="552" grid="1" gridSize="10" guides="1" tooltips="1" connect="1" arrows="1" fold="1" page="1" pageScale="1" pageWidth="827" pageHeight="1169" math="0" shadow="0">
      <root>
        <mxCell id="0" />
        <mxCell id="1" parent="0" />
        <mxCell id="90T7N6xotAZ5luoFzPP6-1" value="Luz" style="swimlane;fontStyle=1;align=center;verticalAlign=top;childLayout=stackLayout;horizontal=1;startSize=26;horizontalStack=0;resizeParent=1;resizeParentMax=0;resizeLast=0;collapsible=1;marginBottom=0;whiteSpace=wrap;html=1;" vertex="1" parent="1">
          <mxGeometry x="20" y="570" width="160" height="86" as="geometry" />
        </mxCell>
        <mxCell id="90T7N6xotAZ5luoFzPP6-2" value="-&amp;nbsp;" style="text;strokeColor=none;fillColor=none;align=left;verticalAlign=top;spacingLeft=4;spacingRight=4;overflow=hidden;rotatable=0;points=[[0,0.5],[1,0.5]];portConstraint=eastwest;whiteSpace=wrap;html=1;" vertex="1" parent="90T7N6xotAZ5luoFzPP6-1">
          <mxGeometry y="26" width="160" height="26" as="geometry" />
        </mxCell>
        <mxCell id="90T7N6xotAZ5luoFzPP6-3" value="" style="line;strokeWidth=1;fillColor=none;align=left;verticalAlign=middle;spacingTop=-1;spacingLeft=3;spacingRight=3;rotatable=0;labelPosition=right;points=[];portConstraint=eastwest;strokeColor=inherit;" vertex="1" parent="90T7N6xotAZ5luoFzPP6-1">
          <mxGeometry y="52" width="160" height="8" as="geometry" />
        </mxCell>
        <mxCell id="90T7N6xotAZ5luoFzPP6-4" value="+&amp;nbsp;" style="text;strokeColor=none;fillColor=none;align=left;verticalAlign=top;spacingLeft=4;spacingRight=4;overflow=hidden;rotatable=0;points=[[0,0.5],[1,0.5]];portConstraint=eastwest;whiteSpace=wrap;html=1;" vertex="1" parent="90T7N6xotAZ5luoFzPP6-1">
          <mxGeometry y="60" width="160" height="26" as="geometry" />
        </mxCell>
        <mxCell id="90T7N6xotAZ5luoFzPP6-5" value="ArCondicionado" style="swimlane;fontStyle=1;align=center;verticalAlign=top;childLayout=stackLayout;horizontal=1;startSize=26;horizontalStack=0;resizeParent=1;resizeParentMax=0;resizeLast=0;collapsible=1;marginBottom=0;whiteSpace=wrap;html=1;" vertex="1" parent="1">
          <mxGeometry x="200" y="556" width="160" height="100" as="geometry" />
        </mxCell>
        <mxCell id="90T7N6xotAZ5luoFzPP6-6" value="-&amp;nbsp;" style="text;strokeColor=none;fillColor=none;align=left;verticalAlign=top;spacingLeft=4;spacingRight=4;overflow=hidden;rotatable=0;points=[[0,0.5],[1,0.5]];portConstraint=eastwest;whiteSpace=wrap;html=1;" vertex="1" parent="90T7N6xotAZ5luoFzPP6-5">
          <mxGeometry y="26" width="160" height="26" as="geometry" />
        </mxCell>
        <mxCell id="90T7N6xotAZ5luoFzPP6-7" value="" style="line;strokeWidth=1;fillColor=none;align=left;verticalAlign=middle;spacingTop=-1;spacingLeft=3;spacingRight=3;rotatable=0;labelPosition=right;points=[];portConstraint=eastwest;strokeColor=inherit;" vertex="1" parent="90T7N6xotAZ5luoFzPP6-5">
          <mxGeometry y="52" width="160" height="8" as="geometry" />
        </mxCell>
        <mxCell id="90T7N6xotAZ5luoFzPP6-8" value="+ AumentarTemperatura()&lt;br&gt;+ DiminuirTempreatura()" style="text;strokeColor=none;fillColor=none;align=left;verticalAlign=top;spacingLeft=4;spacingRight=4;overflow=hidden;rotatable=0;points=[[0,0.5],[1,0.5]];portConstraint=eastwest;whiteSpace=wrap;html=1;" vertex="1" parent="90T7N6xotAZ5luoFzPP6-5">
          <mxGeometry y="60" width="160" height="40" as="geometry" />
        </mxCell>
        <mxCell id="90T7N6xotAZ5luoFzPP6-9" value="EquipamentosEletr칩nicos" style="swimlane;fontStyle=1;align=center;verticalAlign=top;childLayout=stackLayout;horizontal=1;startSize=40;horizontalStack=0;resizeParent=1;resizeParentMax=0;resizeLast=0;collapsible=1;marginBottom=0;whiteSpace=wrap;html=1;" vertex="1" parent="1">
          <mxGeometry x="70" y="320" width="220" height="178" as="geometry" />
        </mxCell>
        <mxCell id="90T7N6xotAZ5luoFzPP6-10" value="- Consumo: Decimal&lt;br&gt;- Voltagem: Inteiro&lt;br&gt;- Marca: Texto&lt;br&gt;- DataInstalacao: Data" style="text;strokeColor=none;fillColor=none;align=left;verticalAlign=top;spacingLeft=4;spacingRight=4;overflow=hidden;rotatable=0;points=[[0,0.5],[1,0.5]];portConstraint=eastwest;whiteSpace=wrap;html=1;" vertex="1" parent="90T7N6xotAZ5luoFzPP6-9">
          <mxGeometry y="40" width="220" height="70" as="geometry" />
        </mxCell>
        <mxCell id="90T7N6xotAZ5luoFzPP6-11" value="" style="line;strokeWidth=1;fillColor=none;align=left;verticalAlign=middle;spacingTop=-1;spacingLeft=3;spacingRight=3;rotatable=0;labelPosition=right;points=[];portConstraint=eastwest;strokeColor=inherit;" vertex="1" parent="90T7N6xotAZ5luoFzPP6-9">
          <mxGeometry y="110" width="220" height="8" as="geometry" />
        </mxCell>
        <mxCell id="90T7N6xotAZ5luoFzPP6-12" value="+ ComandoPorVoz(): bin치rio&lt;br&gt;+ LigaDesliga(): bin치rio" style="text;strokeColor=none;fillColor=none;align=left;verticalAlign=top;spacingLeft=4;spacingRight=4;overflow=hidden;rotatable=0;points=[[0,0.5],[1,0.5]];portConstraint=eastwest;whiteSpace=wrap;html=1;" vertex="1" parent="90T7N6xotAZ5luoFzPP6-9">
          <mxGeometry y="118" width="220" height="60" as="geometry" />
        </mxCell>
        <mxCell id="90T7N6xotAZ5luoFzPP6-17" value="ReconhecimentoFacial" style="swimlane;fontStyle=1;align=center;verticalAlign=top;childLayout=stackLayout;horizontal=1;startSize=26;horizontalStack=0;resizeParent=1;resizeParentMax=0;resizeLast=0;collapsible=1;marginBottom=0;whiteSpace=wrap;html=1;" vertex="1" parent="1">
          <mxGeometry x="386" y="120" width="210" height="110" as="geometry" />
        </mxCell>
        <mxCell id="90T7N6xotAZ5luoFzPP6-18" value="-&amp;nbsp;" style="text;strokeColor=none;fillColor=none;align=left;verticalAlign=top;spacingLeft=4;spacingRight=4;overflow=hidden;rotatable=0;points=[[0,0.5],[1,0.5]];portConstraint=eastwest;whiteSpace=wrap;html=1;" vertex="1" parent="90T7N6xotAZ5luoFzPP6-17">
          <mxGeometry y="26" width="210" height="26" as="geometry" />
        </mxCell>
        <mxCell id="90T7N6xotAZ5luoFzPP6-19" value="" style="line;strokeWidth=1;fillColor=none;align=left;verticalAlign=middle;spacingTop=-1;spacingLeft=3;spacingRight=3;rotatable=0;labelPosition=right;points=[];portConstraint=eastwest;strokeColor=inherit;" vertex="1" parent="90T7N6xotAZ5luoFzPP6-17">
          <mxGeometry y="52" width="210" height="8" as="geometry" />
        </mxCell>
        <mxCell id="90T7N6xotAZ5luoFzPP6-20" value="+ EnviarWhatsapp()&lt;br&gt;+ IdentificarPessoas()&lt;br&gt;+ CadastrarPessoa()" style="text;strokeColor=none;fillColor=none;align=left;verticalAlign=top;spacingLeft=4;spacingRight=4;overflow=hidden;rotatable=0;points=[[0,0.5],[1,0.5]];portConstraint=eastwest;whiteSpace=wrap;html=1;" vertex="1" parent="90T7N6xotAZ5luoFzPP6-17">
          <mxGeometry y="60" width="210" height="50" as="geometry" />
        </mxCell>
        <mxCell id="90T7N6xotAZ5luoFzPP6-21" value="AmbienteDeTrabalho" style="swimlane;fontStyle=1;align=center;verticalAlign=top;childLayout=stackLayout;horizontal=1;startSize=26;horizontalStack=0;resizeParent=1;resizeParentMax=0;resizeLast=0;collapsible=1;marginBottom=0;whiteSpace=wrap;html=1;" vertex="1" parent="1">
          <mxGeometry x="380" y="270" width="216" height="170" as="geometry" />
        </mxCell>
        <mxCell id="90T7N6xotAZ5luoFzPP6-22" value="- Portas: Inteiro&lt;br&gt;- Mesas: Inteiro&lt;br&gt;- Cadeiras: Inteiro&lt;br&gt;- Capacidade: Inteiro" style="text;strokeColor=none;fillColor=none;align=left;verticalAlign=top;spacingLeft=4;spacingRight=4;overflow=hidden;rotatable=0;points=[[0,0.5],[1,0.5]];portConstraint=eastwest;whiteSpace=wrap;html=1;" vertex="1" parent="90T7N6xotAZ5luoFzPP6-21">
          <mxGeometry y="26" width="216" height="64" as="geometry" />
        </mxCell>
        <mxCell id="90T7N6xotAZ5luoFzPP6-23" value="" style="line;strokeWidth=1;fillColor=none;align=left;verticalAlign=middle;spacingTop=-1;spacingLeft=3;spacingRight=3;rotatable=0;labelPosition=right;points=[];portConstraint=eastwest;strokeColor=inherit;" vertex="1" parent="90T7N6xotAZ5luoFzPP6-21">
          <mxGeometry y="90" width="216" height="8" as="geometry" />
        </mxCell>
        <mxCell id="90T7N6xotAZ5luoFzPP6-24" value="+ Entrar(pessoa)&lt;br&gt;+ Sair(pessoa)&lt;br&gt;+ IdentificarPessoa()&lt;br&gt;+ ComandoPorVoz(comando)" style="text;strokeColor=none;fillColor=none;align=left;verticalAlign=top;spacingLeft=4;spacingRight=4;overflow=hidden;rotatable=0;points=[[0,0.5],[1,0.5]];portConstraint=eastwest;whiteSpace=wrap;html=1;" vertex="1" parent="90T7N6xotAZ5luoFzPP6-21">
          <mxGeometry y="98" width="216" height="72" as="geometry" />
        </mxCell>
        <mxCell id="90T7N6xotAZ5luoFzPP6-25" value="" style="endArrow=open;endFill=1;endSize=12;html=1;rounded=0;exitX=0.575;exitY=0.012;exitDx=0;exitDy=0;exitPerimeter=0;" edge="1" parent="1" source="90T7N6xotAZ5luoFzPP6-1">
          <mxGeometry width="160" relative="1" as="geometry">
            <mxPoint x="330" y="410" as="sourcePoint" />
            <mxPoint x="112" y="500" as="targetPoint" />
          </mxGeometry>
        </mxCell>
        <mxCell id="90T7N6xotAZ5luoFzPP6-26" value="" style="endArrow=open;endFill=1;endSize=12;html=1;rounded=0;exitX=0.5;exitY=0;exitDx=0;exitDy=0;" edge="1" parent="1" source="90T7N6xotAZ5luoFzPP6-5">
          <mxGeometry width="160" relative="1" as="geometry">
            <mxPoint x="122" y="581" as="sourcePoint" />
            <mxPoint x="280" y="500" as="targetPoint" />
          </mxGeometry>
        </mxCell>
        <mxCell id="90T7N6xotAZ5luoFzPP6-27" value="" style="endArrow=diamondThin;endFill=1;endSize=24;html=1;rounded=0;entryX=1;entryY=0.5;entryDx=0;entryDy=0;exitX=-0.016;exitY=0.014;exitDx=0;exitDy=0;exitPerimeter=0;" edge="1" parent="1" source="90T7N6xotAZ5luoFzPP6-24" target="90T7N6xotAZ5luoFzPP6-10">
          <mxGeometry width="160" relative="1" as="geometry">
            <mxPoint x="330" y="410" as="sourcePoint" />
            <mxPoint x="490" y="410" as="targetPoint" />
          </mxGeometry>
        </mxCell>
        <mxCell id="90T7N6xotAZ5luoFzPP6-32" value="" style="endArrow=open;endFill=1;endSize=12;html=1;rounded=0;exitX=0.478;exitY=1.015;exitDx=0;exitDy=0;entryX=0.5;entryY=0;entryDx=0;entryDy=0;exitPerimeter=0;" edge="1" parent="1" source="90T7N6xotAZ5luoFzPP6-20" target="90T7N6xotAZ5luoFzPP6-21">
          <mxGeometry width="160" relative="1" as="geometry">
            <mxPoint x="370" y="520" as="sourcePoint" />
            <mxPoint x="509" y="520" as="targetPoint" />
          </mxGeometry>
        </mxCell>
        <mxCell id="90T7N6xotAZ5luoFzPP6-33" value="Pessoas" style="swimlane;fontStyle=1;align=center;verticalAlign=top;childLayout=stackLayout;horizontal=1;startSize=26;horizontalStack=0;resizeParent=1;resizeParentMax=0;resizeLast=0;collapsible=1;marginBottom=0;whiteSpace=wrap;html=1;" vertex="1" parent="1">
          <mxGeometry x="380" y="500" width="216" height="154" as="geometry" />
        </mxCell>
        <mxCell id="90T7N6xotAZ5luoFzPP6-34" value="- Departamento: Texto&lt;br&gt;- Fun칞칚o: Texto&lt;br&gt;- Idade: Inteiro&lt;br&gt;- Sexo: Texto&lt;br&gt;- Nacionalidade: Texto&lt;br&gt;- DeficienteVisual: Bin치rio" style="text;strokeColor=none;fillColor=none;align=left;verticalAlign=top;spacingLeft=4;spacingRight=4;overflow=hidden;rotatable=0;points=[[0,0.5],[1,0.5]];portConstraint=eastwest;whiteSpace=wrap;html=1;" vertex="1" parent="90T7N6xotAZ5luoFzPP6-33">
          <mxGeometry y="26" width="216" height="94" as="geometry" />
        </mxCell>
        <mxCell id="90T7N6xotAZ5luoFzPP6-35" value="" style="line;strokeWidth=1;fillColor=none;align=left;verticalAlign=middle;spacingTop=-1;spacingLeft=3;spacingRight=3;rotatable=0;labelPosition=right;points=[];portConstraint=eastwest;strokeColor=inherit;" vertex="1" parent="90T7N6xotAZ5luoFzPP6-33">
          <mxGeometry y="120" width="216" height="8" as="geometry" />
        </mxCell>
        <mxCell id="90T7N6xotAZ5luoFzPP6-36" value="+ComandoVoz()&lt;br&gt;" style="text;strokeColor=none;fillColor=none;align=left;verticalAlign=top;spacingLeft=4;spacingRight=4;overflow=hidden;rotatable=0;points=[[0,0.5],[1,0.5]];portConstraint=eastwest;whiteSpace=wrap;html=1;" vertex="1" parent="90T7N6xotAZ5luoFzPP6-33">
          <mxGeometry y="128" width="216" height="26" as="geometry" />
        </mxCell>
        <mxCell id="90T7N6xotAZ5luoFzPP6-37" value="" style="endArrow=diamondThin;endFill=1;endSize=24;html=1;rounded=0;entryX=0.451;entryY=-0.028;entryDx=0;entryDy=0;entryPerimeter=0;exitX=0.441;exitY=1.011;exitDx=0;exitDy=0;exitPerimeter=0;" edge="1" parent="1" source="90T7N6xotAZ5luoFzPP6-24" target="90T7N6xotAZ5luoFzPP6-33">
          <mxGeometry width="160" relative="1" as="geometry">
            <mxPoint x="356" y="460" as="sourcePoint" />
            <mxPoint x="516" y="460" as="targetPoint" />
          </mxGeometry>
        </mxCell>
        <mxCell id="90T7N6xotAZ5luoFzPP6-38" value="Diagrama de classes de Victor Alves da Costa&lt;br&gt;RU: 4133713&lt;br&gt;" style="text;align=center;fontStyle=1;verticalAlign=middle;spacingLeft=3;spacingRight=3;strokeColor=none;rotatable=0;points=[[0,0.5],[1,0.5]];portConstraint=eastwest;html=1;" vertex="1" parent="1">
          <mxGeometry x="160" y="270" width="80" height="26" as="geometry" />
        </mxCell>
      </root>
    </mxGraphModel>
  </diagram>
</mxfile>
